<?xml version="1.0" standalone="no"?>
<svg xmlns:xlink="http://www.w3.org/1999/xlink" id="wave" style="transform:rotate(0deg); transition: 0.3s" viewBox="0 0 1440 180" version="1.1" xmlns="http://www.w3.org/2000/svg"><defs><linearGradient id="sw-gradient-0" x1="0" x2="0" y1="1" y2="0"><stop stop-color="rgba(116, 159, 130, 1)" offset="0%"/><stop stop-color="rgba(66, 95, 87, 1)" offset="100%"/></linearGradient></defs><path style="transform:translate(0, 0px); opacity:1" fill="url(#sw-gradient-0)" d="M0,36L20,45C40,54,80,72,120,93C160,114,200,138,240,147C280,156,320,150,360,135C400,120,440,96,480,84C520,72,560,72,600,78C640,84,680,96,720,102C760,108,800,108,840,102C880,96,920,84,960,78C1000,72,1040,72,1080,72C1120,72,1160,72,1200,66C1240,60,1280,48,1320,45C1360,42,1400,48,1440,57C1480,66,1520,78,1560,90C1600,102,1640,114,1680,99C1720,84,1760,42,1800,33C1840,24,1880,48,1920,72C1960,96,2000,120,2040,108C2080,96,2120,48,2160,39C2200,30,2240,60,2280,60C2320,60,2360,30,2400,21C2440,12,2480,24,2520,51C2560,78,2600,120,2640,120C2680,120,2720,78,2760,72C2800,66,2840,96,2860,111L2880,126L2880,180L2860,180C2840,180,2800,180,2760,180C2720,180,2680,180,2640,180C2600,180,2560,180,2520,180C2480,180,2440,180,2400,180C2360,180,2320,180,2280,180C2240,180,2200,180,2160,180C2120,180,2080,180,2040,180C2000,180,1960,180,1920,180C1880,180,1840,180,1800,180C1760,180,1720,180,1680,180C1640,180,1600,180,1560,180C1520,180,1480,180,1440,180C1400,180,1360,180,1320,180C1280,180,1240,180,1200,180C1160,180,1120,180,1080,180C1040,180,1000,180,960,180C920,180,880,180,840,180C800,180,760,180,720,180C680,180,640,180,600,180C560,180,520,180,480,180C440,180,400,180,360,180C320,180,280,180,240,180C200,180,160,180,120,180C80,180,40,180,20,180L0,180Z"/></svg>