<svg width="1440" height="101" viewBox="0 0 1440 101" fill="none" xmlns="http://www.w3.org/2000/svg">
<path d="M0 22.7395L22.5 17.668C44.3 14.0912 87 6.19017 131 2.61337C174.5 -0.749892 218 -0.749892 262 11.1016C305.5 22.7395 349 46.7628 393 61.8174C436.4 77.1923 480 83.5985 524 82.1038C567.3 80.3954 611 70.2523 655 61.8174C698.2 53.169 742 46.7628 785 48.2576C829.1 49.9659 873 60.1091 916 56.7458C960 53.169 1004 36.6197 1047 29.6796C1090.9 22.7395 1135 26.4765 1178 38.1144C1221.8 49.9659 1265 70.2523 1309 66.889C1352.7 63.3122 1396 36.6197 1440 21.2448C1483.6 6.19017 1527 2.45321 1571 9.39327C1614.5 16.3333 1658 32.8827 1702 43.186C1745.5 53.169 1789 56.906 1833 63.4724C1876.4 70.2523 1920 80.3954 1964 77.0322C2007.3 73.4554 2051 56.906 2095 49.9659C2138.2 43.0259 2182 46.7628 2225 49.9659C2269.1 53.169 2313 56.906 2356 55.0375C2400 53.169 2444 46.7628 2487 46.6027C2530.9 46.7628 2575 53.169 2618 61.8174C2661.8 70.2523 2705 80.3954 2749 70.2523C2792.7 60.1091 2836 29.6796 2880 22.8997C2923.6 16.3333 2967 32.8827 3011 44.8943C3054.5 56.906 3098 63.3122 3120 66.889L3141.8 70.2523V100.682H3120C3098.2 100.682 3055 100.682 3011 100.682C2967.3 100.682 2924 100.682 2880 100.682C2836.4 100.682 2793 100.682 2749 100.682C2705.5 100.682 2662 100.682 2618 100.682C2574.5 100.682 2531 100.682 2487 100.682C2443.6 100.682 2400 100.682 2356 100.682C2312.7 100.682 2269 100.682 2225 100.682C2181.8 100.682 2138 100.682 2095 100.682C2050.9 100.682 2007 100.682 1964 100.682C1920 100.682 1876 100.682 1833 100.682C1789.1 100.682 1745 100.682 1702 100.682C1658.2 100.682 1615 100.682 1571 100.682C1527.3 100.682 1484 100.682 1440 100.682C1396.4 100.682 1353 100.682 1309 100.682C1265.5 100.682 1222 100.682 1178 100.682C1134.5 100.682 1091 100.682 1047 100.682C1003.6 100.682 960 100.682 916 100.682C872.7 100.682 829 100.682 785 100.682C741.8 100.682 698 100.682 655 100.682C610.9 100.682 567 100.682 524 100.682C480 100.682 436 100.682 393 100.682C349.1 100.682 305 100.682 262 100.682C218.2 100.682 175 100.682 131 100.682C87.3 100.682 44 100.682 22 100.682H0V22.7395Z" fill="url(#paint0_linear_92_9)"/>
<defs>
<linearGradient id="paint0_linear_92_9" x1="0" y1="100.682" x2="0" y2="0.681763" gradientUnits="userSpaceOnUse">
<stop stop-color="#749F82"/>
<stop offset="1" stop-color="#CFFF8D"/>
</linearGradient>
</defs>
</svg>
